<svg xmlns="http://www.w3.org/2000/svg" xmlns:xlink="http://www.w3.org/1999/xlink" viewBox="0 0 2045.49 2170.16"><defs><style>.cls-1{fill:none;}.cls-2{isolation:isolate;}.cls-3{fill:#d6d5d5;opacity:0.49;}.cls-4,.cls-6{fill:#30414a;}.cls-5{fill:#4f697a;}.cls-23,.cls-24,.cls-32,.cls-6{fill-rule:evenodd;}.cls-32,.cls-7{fill:#f79d7a;}.cls-21,.cls-8{fill:#ad8c77;}.cls-9{fill:#e1b392;}.cls-10{fill:#a47d62;}.cls-11{fill:#8e664a;}.cls-12,.cls-23,.cls-26{fill:#7e9098;}.cls-12{opacity:0.23;}.cls-13{fill:#484055;}.cls-14{opacity:0.18;mix-blend-mode:multiply;}.cls-15{fill:#010101;}.cls-16{fill:#dcd5c5;}.cls-17{clip-path:url(#clip-path);}.cls-18{fill:#fff;}.cls-19{clip-path:url(#clip-path-2);}.cls-20{clip-path:url(#clip-path-3);}.cls-21,.cls-41{opacity:0.37;}.cls-22{clip-path:url(#clip-path-4);}.cls-24,.cls-28{fill:#e7dfca;}.cls-25{clip-path:url(#clip-path-5);}.cls-27{fill:#4e6971;}.cls-29{fill:#394e5a;}.cls-30{fill:#7e728d;}.cls-31{fill:#d58078;}.cls-33{fill:#fff0db;}.cls-34{clip-path:url(#clip-path-6);}.cls-35{fill:#645973;}.cls-36{opacity:0.14;}.cls-37{clip-path:url(#clip-path-7);}.cls-38{fill:#f2f3f3;}.cls-39,.cls-40{opacity:0.19;}.cls-39{fill:url(#linear-gradient);}.cls-40{fill:url(#linear-gradient-2);}.cls-41{fill:#533d38;}</style><clipPath id="clip-path"><path class="cls-1" d="M536.88,1142a24.39,24.39,0,1,1-24.39-24.39A24.39,24.39,0,0,1,536.88,1142Z"/></clipPath><clipPath id="clip-path-2"><path class="cls-1" d="M683.7,1081.71a24.39,24.39,0,1,1-24.38-24.39A24.38,24.38,0,0,1,683.7,1081.71Z"/></clipPath><clipPath id="clip-path-3"><path class="cls-1" d="M1529.27,2055.61H1784.2l-6-287.54s-127.79-170.41-127.79-205.9-42.62-220.1-14.21-262.71c22.7-34,71.12-106.76,85.39-159.83h0c0-.1,0-.2,0-.31,2.74-10.24,4.17-19.73,3.91-28.07,13.75-160.85-138.37-212.53-138.37-212.53,50.23,70.83,50.38,133.07,38.94,176.54-.2.2-.4.35-.59.55a185.21,185.21,0,0,1-10.82,31.14,164.68,164.68,0,0,1-18.6,31.32l-1,1.2-.12.15c-16.12,19.59-39.57,33.92-72.45,25-78.12-21.3-671-103-720.66-216.55-32.09-73.37-46.42-120.66-52.55-145a445.28,445.28,0,0,0-16.16-50.79l-30.18-78.62a128.56,128.56,0,0,0-94.57-79.94l-40.56-8.18c-36.58-7.38-74.64-5.2-109.68,7.64-20.28,7.43-37.85,17.54-52.31,32-56.79,56.8-44.67,121.61-158.19,132C106.42,770,150.52,833,156.16,866.58,176.1,985.24,387.93,937.74,423.43,1023s49.27,205.23,76.79,290.71C527.43,1398.2,624,1432.11,691.92,1477c64.06,42.32,49.7,120.69,49.7,191.69v276.91s-120.54-6.68-114.46,110H842.27c8.64-24,34.25-81.65,34.25-81.65l56.79-454.4,397.6,21.3s213,205.91,255.59,255.6,78.12,120.7,42.62,163.3C1598.88,1996,1548.07,1976.47,1529.27,2055.61Z"/></clipPath><clipPath id="clip-path-4"><path class="cls-1" d="M810.43,990.81A24.39,24.39,0,1,1,786,966.42,24.39,24.39,0,0,1,810.43,990.81Z"/></clipPath><clipPath id="clip-path-5"><circle class="cls-1" cx="446.99" cy="724.69" r="434.71" transform="translate(-381.51 528.32) rotate(-45)"/></clipPath><clipPath id="clip-path-6"><path class="cls-1" d="M813.57,1257.67c.27-2.28.64-4.44.71-6.61a2.54,2.54,0,0,0-1.27-1.8c-3-1.59-3.9-4.1-3.63-7.24.15-1.71.37-3.43.6-5.14a7,7,0,0,1,7.83-6.37q7,.65,14,1.65c4.36.63,6.69,3.79,6.24,8.12-.17,1.63-.4,3.27-.58,4.9-.36,3.28-1.91,5.51-5.25,6.38-.62.16-1,1-1.53,1.62-.09.1-.05.3-.07.46-.79,5.76-.75,5.63,4.79,7.36a76.22,76.22,0,0,1,30.73,18.73c1.75-1.32,3.59-2.61,5.3-4a1.93,1.93,0,0,0,.38-1.72c-1.08-3.17-.07-5.69,2.28-7.8,1.75-1.56,3.53-3.11,5.4-4.52a7.06,7.06,0,0,1,9.88,1.17q4.51,5.57,8.78,11.33c2.54,3.45,2.1,7-1.12,9.82-1.76,1.55-3.63,3-5.52,4.37a6.9,6.9,0,0,1-7.54.53,2.45,2.45,0,0,0-3.11.43c-1.42,1.21-2.94,2.3-4.55,3.54,10.3,17.2,13.67,35.59,9.38,55.08a72.31,72.31,0,0,1-23.41,39.45,74.17,74.17,0,0,1-121.65-70.89C747.66,1283,776.72,1258,813.57,1257.67Zm57.06,80.93a57.73,57.73,0,1,0-64.19,50.49A57.47,57.47,0,0,0,870.63,1338.6Z"/></clipPath><clipPath id="clip-path-7"><path class="cls-1" d="M618.52,1433.05a345.84,345.84,0,0,1-52.18-4A338.69,338.69,0,0,1,343.08,1294c-53.95-73.38-74.65-155.24-60.9-245.27l63.35,1.75A275.42,275.42,0,0,0,890,1133.81l17.79-129.75,64.93,8.9-17.89,130.51a341.11,341.11,0,0,1-336.33,289.58Z"/></clipPath><linearGradient id="linear-gradient" x1="59.04" y1="595.02" x2="1419.04" y2="595.02" gradientTransform="translate(395.45 -289.39) rotate(29.93)" gradientUnits="userSpaceOnUse"><stop offset="0.27" stop-color="#fff"/><stop offset="0.28" stop-color="#fdfafa" stop-opacity="0.96"/><stop offset="0.31" stop-color="#f6e4e2" stop-opacity="0.78"/><stop offset="0.34" stop-color="#efcecb" stop-opacity="0.61"/><stop offset="0.38" stop-color="#e9bbb7" stop-opacity="0.47"/><stop offset="0.41" stop-color="#e3aba6" stop-opacity="0.34"/><stop offset="0.46" stop-color="#df9e97" stop-opacity="0.23"/><stop offset="0.51" stop-color="#db938c" stop-opacity="0.15"/><stop offset="0.56" stop-color="#d88a83" stop-opacity="0.08"/><stop offset="0.63" stop-color="#d6847d" stop-opacity="0.03"/><stop offset="0.73" stop-color="#d58179" stop-opacity="0.01"/><stop offset="1" stop-color="#d58078" stop-opacity="0"/></linearGradient><linearGradient id="linear-gradient-2" x1="26.66" y1="779.85" x2="1386.66" y2="779.85" gradientTransform="translate(483.36 -248.58) rotate(29.93)" xlink:href="#linear-gradient"/></defs><title>error-dog</title><g class="cls-2"><g id="Layer_2" data-name="Layer 2"><g id="jetpack_puppy" data-name="jetpack puppy"><ellipse class="cls-3" cx="1159.26" cy="2065.81" rx="886.22" ry="104.35"/><path class="cls-4" d="M1413.59,973.31l-365.84-60.84,36.89-207.67a55.23,55.23,0,0,1,64-44.71l635.86,87.14Z"/><path class="cls-5" d="M1477.56,1189.84l-614.8-134.11,33.51-153.64a112.92,112.92,0,0,1,134.38-86.25l504.48,110Z"/><path class="cls-6" d="M1493.82,1038.93c-13.28,64.6-17.16,118.39-8.66,120.13s26.14-49.21,39.42-113.81,17.16-118.39,8.67-120.14S1507.09,974.32,1493.82,1038.93Z"/><path class="cls-7" d="M983,612.39c-2,10-8.52,31.08-28.11,40.16a.82.82,0,0,0,.06,1.54c5.81,1.77,21,8.79,28.83,35a.84.84,0,0,0,1.62-.11c1.58-8.77,7.63-29.34,30-34.8a.83.83,0,0,0,0-1.59c-7.66-2.47-25.75-11.3-30.76-40.2A.82.82,0,0,0,983,612.39Z"/><path class="cls-7" d="M222.69,1179.62c-2,10-8.52,31.08-28.12,40.16a.82.82,0,0,0,.06,1.54c5.82,1.77,21,8.79,28.84,35a.83.83,0,0,0,1.61-.11c1.58-8.77,7.63-29.34,30-34.8a.83.83,0,0,0,0-1.59c-7.66-2.47-25.74-11.3-30.76-40.2A.82.82,0,0,0,222.69,1179.62Z"/><path class="cls-8" d="M1332,2056.6c18.34-86.28,69.84-63.56,100.39-101.93,35.5-44.63,0-120-42.6-172.1C1352.51,1737,1184.58,1566,1143.38,1524.1H1452.9c.5,5.49.82,10,.82,13,0,37.2,127.79,215.71,127.79,215.71l6,303.78Z"/><path class="cls-8" d="M778.65,2056.6H532.7c12.3-112.4,113.39-105.39,113.39-105.39V1600.76c0-50.54,2.57-106.61-4.87-153.24l214.1,2.71-53,536.92S789.26,2024.27,778.65,2056.6Z"/><path class="cls-9" d="M1529.27,2055.61H1784.2l-6-287.54s-127.79-170.41-127.79-205.9-42.62-220.1-14.21-262.71c22.7-34,71.12-106.76,85.39-159.83h0c0-.1,0-.2,0-.31,2.74-10.24,4.17-19.73,3.91-28.07,13.75-160.85-138.37-212.53-138.37-212.53,50.23,70.83,50.38,133.07,38.94,176.54-.2.2-.4.35-.59.55a185.21,185.21,0,0,1-10.82,31.14,164.68,164.68,0,0,1-18.6,31.32l-1,1.2-.12.15c-16.12,19.59-39.57,33.92-72.45,25-78.12-21.3-671-103-720.66-216.55-32.09-73.37-46.42-120.66-52.55-145a445.28,445.28,0,0,0-16.16-50.79l-30.18-78.62a128.56,128.56,0,0,0-94.57-79.94l-40.56-8.18c-36.58-7.38-74.64-5.2-109.68,7.64-20.28,7.43-37.85,17.54-52.31,32-56.79,56.8-44.67,121.61-158.19,132C106.42,770,150.52,833,156.16,866.58,176.1,985.24,387.93,937.74,423.43,1023s49.27,205.23,76.79,290.71C527.43,1398.2,624,1432.11,691.92,1477c64.06,42.32,49.7,120.69,49.7,191.69v276.91s-120.54-6.68-114.46,110H842.27c8.64-24,34.25-81.65,34.25-81.65l56.79-454.4,397.6,21.3s213,205.91,255.59,255.6,78.12,120.7,42.62,163.3C1598.88,1996,1548.07,1976.47,1529.27,2055.61Z"/><path class="cls-10" d="M584.17,641.64s143.51,63.6,82.5,211c0,0-3.44-35.25-13-36.13S624.41,949.31,525.21,945.15,449.38,827.8,449.38,827.8s57.46-117.53,29-151.69l-18-39.3S509.64,621.13,584.17,641.64Z"/><path class="cls-11" d="M145.58,801s-9.36,47.19,22.11,42.82c0,0,61.17-21.85,59.43-48.07s-9.36-33.59-9.36-33.59S161.06,753.75,145.58,801Z"/><circle class="cls-12" cx="446.99" cy="724.69" r="434.71" transform="translate(-381.51 528.32) rotate(-45)"/><path class="cls-13" d="M447,1106S658.1,1072.34,788.7,917l66.62,79.55s-149.69,167.71-392.23,200Z"/><g class="cls-14"><path class="cls-15" d="M545.49,1142a33,33,0,1,1-33-33A33,33,0,0,1,545.49,1142Z"/></g><path class="cls-16" d="M536.88,1142a24.39,24.39,0,1,1-24.39-24.39A24.39,24.39,0,0,1,536.88,1142Z"/><g class="cls-17"><rect class="cls-18" x="487.74" y="1143.2" width="54.57" height="4.3" transform="translate(-578.11 527.17) rotate(-36.3)"/><rect class="cls-18" x="482.67" y="1136.51" width="54.57" height="4.3" transform="matrix(0.81, -0.59, 0.59, 0.81, -574.72, 522.15)"/></g><g class="cls-14"><path class="cls-15" d="M692.31,1081.71a33,33,0,1,1-33-33A33,33,0,0,1,692.31,1081.71Z"/></g><path class="cls-16" d="M683.7,1081.71a24.39,24.39,0,1,1-24.38-24.39A24.38,24.38,0,0,1,683.7,1081.71Z"/><g class="cls-19"><rect class="cls-18" x="634.56" y="1082.9" width="54.57" height="4.3" transform="translate(-513.62 601.69) rotate(-36.27)"/><rect class="cls-18" x="629.5" y="1076.21" width="54.56" height="4.3" transform="translate(-510.68 597.48) rotate(-36.27)"/></g><g class="cls-20"><path class="cls-21" d="M635.56,1453.38a345.72,345.72,0,0,1-52.17-4,338.69,338.69,0,0,1-223.27-135.1c-53.94-73.38-74.65-155.24-60.9-245.27l63.35,1.75a275.42,275.42,0,0,0,544.49,83.36l17.79-129.76,64.93,8.91-17.89,130.5a341.13,341.13,0,0,1-336.33,289.59Z"/></g><g class="cls-14"><path class="cls-15" d="M819,990.81a33,33,0,1,1-33-33A33,33,0,0,1,819,990.81Z"/></g><path class="cls-16" d="M810.43,990.81A24.39,24.39,0,1,1,786,966.42,24.39,24.39,0,0,1,810.43,990.81Z"/><g class="cls-22"><rect class="cls-18" x="761.29" y="992" width="54.57" height="4.3" transform="translate(-435.42 659.45) rotate(-36.28)"/><rect class="cls-18" x="756.23" y="985.32" width="54.57" height="4.3" transform="translate(-432.45 655.16) rotate(-36.28)"/></g><polygon class="cls-23" points="1470.26 911.74 1420.15 1145.28 1344.87 1131.35 1395.49 895.43 1470.26 911.74"/><path class="cls-24" d="M1413.26,1123.71h0a7.1,7.1,0,0,1-8.4,5.43l-43.52-9.34a7.07,7.07,0,0,1-5.42-8.39h0a7.1,7.1,0,0,1,8.39-5.44l43.52,9.34A7.1,7.1,0,0,1,1413.26,1123.71Z"/><path class="cls-24" d="M1420.51,1091.24h0a7.09,7.09,0,0,1-8.4,5.42l-43.51-9.33a7.09,7.09,0,0,1-5.43-8.4h0a7.09,7.09,0,0,1,8.39-5.43l43.52,9.34A7.09,7.09,0,0,1,1420.51,1091.24Z"/><path class="cls-24" d="M1427.76,1058.76h0a7.09,7.09,0,0,1-8.39,5.43l-43.52-9.34a7.08,7.08,0,0,1-5.43-8.39h0a7.08,7.08,0,0,1,8.4-5.43l43.51,9.33A7.1,7.1,0,0,1,1427.76,1058.76Z"/><path class="cls-24" d="M1435,1026.28h0a7.09,7.09,0,0,1-8.39,5.43l-43.52-9.33a7.1,7.1,0,0,1-5.43-8.4h0a7.1,7.1,0,0,1,8.4-5.43l43.51,9.34A7.07,7.07,0,0,1,1435,1026.28Z"/><path class="cls-24" d="M1442.26,993.81h0a7.09,7.09,0,0,1-8.39,5.43l-43.52-9.34a7.09,7.09,0,0,1-5.43-8.39h0a7.09,7.09,0,0,1,8.4-5.43l43.51,9.33A7.1,7.1,0,0,1,1442.26,993.81Z"/><path class="cls-24" d="M1449.52,961.33h0a7.09,7.09,0,0,1-8.4,5.43l-43.52-9.33a7.09,7.09,0,0,1-5.42-8.4h0a7.08,7.08,0,0,1,8.39-5.43l43.51,9.34A7.09,7.09,0,0,1,1449.52,961.33Z"/><path class="cls-24" d="M1456.76,928.86h0a7.09,7.09,0,0,1-8.39,5.43L1404.86,925a7.1,7.1,0,0,1-5.44-8.4h0a7.09,7.09,0,0,1,8.4-5.42l43.52,9.33A7.09,7.09,0,0,1,1456.76,928.86Z"/><g class="cls-25"><path class="cls-26" d="M755.56,422.36l-63.71,46S798.69,551,816.39,743.7L931.22,693s16.61-215.56-171.3-270.62"/></g><path class="cls-27" d="M844.46,717.61c0,8.15-6,14.75-13.43,14.75s-13.44-6.6-13.44-14.75,6-14.75,13.44-14.75S844.46,709.47,844.46,717.61Z"/><path class="cls-27" d="M881.83,692.05c0,8.14-6,14.75-13.44,14.75S855,700.19,855,692.05s6-14.75,13.44-14.75S881.83,683.9,881.83,692.05Z"/><path class="cls-28" d="M749.93,451.34A11.23,11.23,0,1,1,736.62,460,11.24,11.24,0,0,1,749.93,451.34Z"/><rect class="cls-26" x="744.84" y="448.25" width="4.35" height="28.48" transform="translate(-122.32 589.73) rotate(-40.09)"/><path class="cls-29" d="M971.08,848.27c0,4.25-5.8,7.7-13,7.7s-12.94-3.45-12.94-7.7,5.8-7.7,12.94-7.7S971.08,844,971.08,848.27Z"/><path class="cls-29" d="M1010.74,822.59c0,4.25-5.8,7.7-13,7.7s-12.94-3.45-12.94-7.7,5.79-7.7,12.94-7.7S1010.74,818.33,1010.74,822.59Z"/><path class="cls-28" d="M838.06,632.23a11.22,11.22,0,1,1-13.3,8.66A11.21,11.21,0,0,1,838.06,632.23Z"/><rect class="cls-26" x="832.98" y="629.13" width="4.35" height="28.48" transform="translate(-218.1 688.92) rotate(-40.09)"/><path class="cls-4" d="M957.7,850.07a7.36,7.36,0,0,1-7.37-7.36A118.59,118.59,0,0,0,831.89,724.26a7.37,7.37,0,1,1,0-14.73c73.43,0,133.18,59.74,133.18,133.18A7.37,7.37,0,0,1,957.7,850.07Z"/><path class="cls-4" d="M997,824.86a7.37,7.37,0,0,1-7.37-7.37A118.57,118.57,0,0,0,871.15,699.05a7.37,7.37,0,0,1,0-14.74c73.43,0,133.18,59.75,133.18,133.18A7.37,7.37,0,0,1,997,824.86Z"/><polyline class="cls-29" points="1109.21 832.98 1066.71 987.66 1292.48 1042.09 1330.94 881.35"/><polyline class="cls-30" points="439.65 290.96 439.65 28.69 422.2 28.69 422.2 290.32"/><path class="cls-7" d="M458.33,28.69A28.69,28.69,0,1,1,429.64,0,28.7,28.7,0,0,1,458.33,28.69Z"/><path class="cls-28" d="M1265,1010.79,1273.4,976a7.16,7.16,0,0,1,8.63-5.27h0a7.16,7.16,0,0,1,5.27,8.63l-8.41,34.79a7.16,7.16,0,0,1-8.63,5.27h0A7.16,7.16,0,0,1,1265,1010.79Z"/><polygon class="cls-21" points="973.43 1522.49 1090.32 1527.97 1180.68 1097.37 1074.43 1072.34 973.43 1522.49"/><path class="cls-26" d="M1291.28,954.53a6.23,6.23,0,1,1-6.22-6.23A6.23,6.23,0,0,1,1291.28,954.53Z"/><path class="cls-26" d="M1296.53,932.89a6.23,6.23,0,1,1-6.23-6.22A6.23,6.23,0,0,1,1296.53,932.89Z"/><path class="cls-31" d="M1301.77,911.26a6.23,6.23,0,1,1-6.23-6.22A6.22,6.22,0,0,1,1301.77,911.26Z"/><polygon class="cls-4" points="950.93 1521.47 1067.87 1526.77 1158.99 1092.57 1053.18 1065.75 950.93 1521.47"/><polygon class="cls-26" points="1110.47 833.69 1123.76 771.11 1202.35 854.13 1110.47 833.69"/><polygon class="cls-28" points="1123.11 825.86 1129.95 793.64 1170.4 835.9 1123.11 825.86"/><polygon class="cls-26" points="1201.29 853.78 1215.52 792.09 1294.12 874.18 1201.29 853.78"/><polygon class="cls-28" points="1214.88 846.83 1221.71 814.62 1262.16 856.87 1214.88 846.83"/><polygon class="cls-26" points="1294.44 873.89 1307.72 811.31 1386.32 893.4 1294.44 873.89"/><polygon class="cls-28" points="1307.08 866.06 1313.92 833.85 1354.37 876.1 1307.08 866.06"/><polygon class="cls-26" points="1386.64 894 1399.93 831.41 1478.52 913.5 1386.64 894"/><polygon class="cls-28" points="1399.28 886.16 1406.12 853.95 1446.57 896.2 1399.28 886.16"/><path class="cls-28" d="M1138.49,839.64l-26.68,105.18a15.61,15.61,0,0,0,11.48,19l84,20.13a15.6,15.6,0,0,0,18.87-11.82l23.66-107.42Z"/><path class="cls-5" d="M618.52,1433.05a345.84,345.84,0,0,1-52.18-4A338.69,338.69,0,0,1,343.08,1294c-53.95-73.38-74.65-155.24-60.9-245.27l63.35,1.75A275.42,275.42,0,0,0,890,1133.81l17.79-129.75,64.93,8.9-17.89,130.51a341.11,341.11,0,0,1-336.33,289.58Z"/><path class="cls-31" d="M1199.75,972.81l-45.22-10.6,23.68-101.06,45,10.56a13.66,13.66,0,0,1,10.19,16.41l-17.5,74.65A13.46,13.46,0,0,1,1199.75,972.81Z"/><path class="cls-32" d="M1160.11,910c-6.76,27.88-9.26,51.21-5.6,52.09s12.12-21,18.88-48.88,9.27-51.21,5.6-52.1S1166.87,882.07,1160.11,910Z"/><path class="cls-31" d="M920.65,1026.16l-15.08,110a291.28,291.28,0,0,1-287.2,247,296.08,296.08,0,0,1-44.51-3.39A289.06,289.06,0,0,1,423,1308.54l-21.31,26.68a322.93,322.93,0,0,0,167,78.31,331,331,0,0,0,49.8,3.8c69.25,0,135.62-21.88,191.91-63.27a322.77,322.77,0,0,0,128.83-212.72L955,1038.49Z"/><path class="cls-7" d="M415.68,1324.38c-5.78,7.68-12.11,12.67-14.13,11.15s1-9,6.82-16.66,12.12-12.68,14.13-11.16S421.47,1316.7,415.68,1324.38Z"/><path class="cls-28" d="M455.64,1361.37a4.06,4.06,0,1,1-4.06-4.07A4.05,4.05,0,0,1,455.64,1361.37Z"/><path class="cls-28" d="M564.6,1384.76a4.07,4.07,0,1,1-4.06-4.07A4.06,4.06,0,0,1,564.6,1384.76Z"/><path class="cls-28" d="M607.86,1404.86a4.07,4.07,0,1,1-4.06-4.06A4.06,4.06,0,0,1,607.86,1404.86Z"/><path class="cls-28" d="M689.88,1389.78a6.56,6.56,0,1,1-6.55-6.55A6.56,6.56,0,0,1,689.88,1389.78Z"/><path class="cls-28" d="M787,1358.54a4.06,4.06,0,1,1-4.06-4.06A4.06,4.06,0,0,1,787,1358.54Z"/><path class="cls-28" d="M859.38,1280.32a4.06,4.06,0,1,1-4.06-4.06A4.06,4.06,0,0,1,859.38,1280.32Z"/><path class="cls-28" d="M921.81,1196.51a8.63,8.63,0,1,1-8.63-8.63A8.63,8.63,0,0,1,921.81,1196.51Z"/><path class="cls-5" d="M813.57,1257.67c.27-2.28.64-4.44.71-6.61a2.54,2.54,0,0,0-1.27-1.8c-3-1.59-3.9-4.1-3.63-7.24.15-1.71.37-3.43.6-5.14a7,7,0,0,1,7.83-6.37q7,.65,14,1.65c4.36.63,6.69,3.79,6.24,8.12-.17,1.63-.4,3.27-.58,4.9-.36,3.28-1.91,5.51-5.25,6.38-.62.16-1,1-1.53,1.62-.09.1-.05.3-.07.46-.79,5.76-.75,5.63,4.79,7.36a76.22,76.22,0,0,1,30.73,18.73c1.75-1.32,3.59-2.61,5.3-4a1.93,1.93,0,0,0,.38-1.72c-1.08-3.17-.07-5.69,2.28-7.8,1.75-1.56,3.53-3.11,5.4-4.52a7.06,7.06,0,0,1,9.88,1.17q4.51,5.57,8.78,11.33c2.54,3.45,2.1,7-1.12,9.82-1.76,1.55-3.63,3-5.52,4.37a6.9,6.9,0,0,1-7.54.53,2.45,2.45,0,0,0-3.11.43c-1.42,1.21-2.94,2.3-4.55,3.54,10.3,17.2,13.67,35.59,9.38,55.08a72.31,72.31,0,0,1-23.41,39.45,74.17,74.17,0,0,1-121.65-70.89C747.66,1283,776.72,1258,813.57,1257.67Zm57.06,80.93a57.73,57.73,0,1,0-64.19,50.49A57.47,57.47,0,0,0,870.63,1338.6Z"/><path class="cls-4" d="M870.63,1338.6a57.73,57.73,0,1,1-50.52-64.14A57.74,57.74,0,0,1,870.63,1338.6Zm-19.79-39.71-2.21,1.43c-8.17,5.38-16.37,10.72-24.49,16.18a3.59,3.59,0,0,1-4.21.3c-9.18-4.61-21.38,1.6-23.13,11.67-1.15,6.64,1.68,13.57,7.1,17,5.81,3.65,11.88,3.9,17.7.28,6.61-4.11,9-10,7.41-17.49a3,3,0,0,1,1.06-3.22c5.74-5.54,11.42-11.16,17.11-16.75,2-2,4.07-4,5.9-5.85ZM819,1284.5a4.37,4.37,0,0,0-4.9,3.66,4.36,4.36,0,0,0,8.63,1.19A4.38,4.38,0,0,0,819,1284.5Zm38.47,48.85a4.58,4.58,0,0,0-4.83,3.78,4.39,4.39,0,0,0,8.72,1A4.56,4.56,0,0,0,857.42,1333.35Zm-49.88,46.4a4.51,4.51,0,0,0,4.9-3.7,4.36,4.36,0,0,0-8.63-1.18A4.49,4.49,0,0,0,807.54,1379.75Zm-16.72-81.23a4.38,4.38,0,1,0-4.84,3.81A4.71,4.71,0,0,0,790.82,1298.52Zm-16.68,28.29a4.45,4.45,0,0,0-4-4.64,4.5,4.5,0,0,0-4.75,3.84,4.38,4.38,0,0,0,8.73.8Zm1.07,31.87a4.28,4.28,0,1,0,8.5,1,4.18,4.18,0,0,0-3.62-4.66A4.22,4.22,0,0,0,775.21,1358.68Zm64.61,11.73a4.22,4.22,0,0,0,4.7-3.83,4.39,4.39,0,0,0-3.74-4.65,4.46,4.46,0,0,0-4.84,3.77A4.32,4.32,0,0,0,839.82,1370.41Z"/><path class="cls-26" d="M850.84,1298.89l2.24,3.52c-1.83,1.82-3.86,3.85-5.9,5.85-5.69,5.59-11.37,11.21-17.11,16.75a3,3,0,0,0-1.06,3.22c1.58,7.45-.8,13.38-7.41,17.49-5.82,3.62-11.89,3.37-17.7-.28-5.42-3.4-8.25-10.33-7.1-17,1.75-10.07,14-16.28,23.13-11.67a3.59,3.59,0,0,0,4.21-.3c8.12-5.46,16.32-10.8,24.49-16.18Z"/><path class="cls-33" d="M819,1284.5a4.38,4.38,0,0,1,3.73,4.85,4.36,4.36,0,0,1-8.63-1.19A4.37,4.37,0,0,1,819,1284.5Z"/><path class="cls-33" d="M857.42,1333.35a4.56,4.56,0,0,1,3.89,4.75,4.39,4.39,0,0,1-8.72-1A4.58,4.58,0,0,1,857.42,1333.35Z"/><path class="cls-33" d="M807.54,1379.75a4.49,4.49,0,0,1-3.73-4.88,4.36,4.36,0,0,1,8.63,1.18A4.51,4.51,0,0,1,807.54,1379.75Z"/><path class="cls-33" d="M790.82,1298.52a4.38,4.38,0,0,1-8.71-1,4.38,4.38,0,0,1,8.71,1Z"/><path class="cls-33" d="M774.14,1326.81a4.38,4.38,0,0,1-8.73-.8,4.5,4.5,0,0,1,4.75-3.84A4.45,4.45,0,0,1,774.14,1326.81Z"/><path class="cls-33" d="M775.21,1358.68a4.22,4.22,0,0,1,4.88-3.61,4.18,4.18,0,0,1,3.62,4.66,4.28,4.28,0,1,1-8.5-1Z"/><path class="cls-33" d="M839.82,1370.41a4.32,4.32,0,0,1-3.88-4.71,4.46,4.46,0,0,1,4.84-3.77,4.39,4.39,0,0,1,3.74,4.65A4.22,4.22,0,0,1,839.82,1370.41Z"/><g class="cls-34"><polygon class="cls-4" points="866.13 1279.73 878.43 1296.55 911.43 1282.17 885.87 1240.55 859.38 1257.59 866.13 1279.73"/></g><path class="cls-35" d="M41.83,534c-3,14.61-12.45,45.41-41.08,58.67A1.2,1.2,0,0,0,.84,595c8.49,2.58,30.61,12.85,42.12,51.2a1.22,1.22,0,0,0,2.36-.15c2.31-12.82,11.15-42.87,43.76-50.84a1.21,1.21,0,0,0,0-2.32c-11.19-3.62-37.61-16.51-44.93-58.74A1.2,1.2,0,0,0,41.83,534Z"/><path class="cls-26" d="M1752.44,866c-1.6,7.89-6.72,24.52-22.18,31.68a.64.64,0,0,0,0,1.21c4.58,1.4,16.52,6.94,22.74,27.65a.65.65,0,0,0,1.27-.09c1.25-6.92,6-23.14,23.63-27.44a.65.65,0,0,0,0-1.26c-6-2-20.3-8.91-24.26-31.71A.64.64,0,0,0,1752.44,866Z"/><path class="cls-26" d="M478.76,1493.85c-1.6,7.89-6.72,24.52-22.18,31.68a.65.65,0,0,0,.05,1.22c4.59,1.39,16.53,6.93,22.75,27.64a.66.66,0,0,0,1.27-.08c1.25-6.92,6-23.15,23.63-27.45a.66.66,0,0,0,0-1.26c-6-1.95-20.31-8.91-24.26-31.71A.65.65,0,0,0,478.76,1493.85Z"/><polygon class="cls-5" points="1543.06 713.24 1530.3 794.85 1277.12 758.4 1291.63 679.13 1543.06 713.24"/><path class="cls-26" d="M1048.94,1447.2a18.74,18.74,0,1,1-18.74-18.73A18.74,18.74,0,0,1,1048.94,1447.2Z"/><path class="cls-5" d="M1059.28,1388.49a18.74,18.74,0,1,1-18.74-18.74A18.73,18.73,0,0,1,1059.28,1388.49Z"/><path class="cls-28" d="M1300.57,687.44a2.52,2.52,0,1,1-2.52-2.51A2.51,2.51,0,0,1,1300.57,687.44Z"/><path class="cls-28" d="M1298.88,702.41a2.52,2.52,0,1,1-2.52-2.52A2.52,2.52,0,0,1,1298.88,702.41Z"/><path class="cls-28" d="M1296.36,718.46a2.51,2.51,0,1,1-2.51-2.51A2.51,2.51,0,0,1,1296.36,718.46Z"/><path class="cls-28" d="M1293.85,735a2.52,2.52,0,1,1-2.51-2.51A2.52,2.52,0,0,1,1293.85,735Z"/><path class="cls-28" d="M1291.34,751.57a2.52,2.52,0,1,1-2.52-2.52A2.52,2.52,0,0,1,1291.34,751.57Z"/><path class="cls-28" d="M1309.5,755.23a2.52,2.52,0,1,1-2.52-2.52A2.52,2.52,0,0,1,1309.5,755.23Z"/><path class="cls-28" d="M1328.37,759.1a2.51,2.51,0,1,1-2.51-2.51A2.51,2.51,0,0,1,1328.37,759.1Z"/><path class="cls-28" d="M1348.15,761.62a2.52,2.52,0,1,1-2.52-2.52A2.52,2.52,0,0,1,1348.15,761.62Z"/><path class="cls-28" d="M1367.81,764.89a2.52,2.52,0,1,1-2.51-2.51A2.52,2.52,0,0,1,1367.81,764.89Z"/><path class="cls-28" d="M1386.82,767.41a2.52,2.52,0,1,1-2.52-2.52A2.51,2.51,0,0,1,1386.82,767.41Z"/><path class="cls-28" d="M1407.14,770.85a2.52,2.52,0,1,1-2.51-2.51A2.51,2.51,0,0,1,1407.14,770.85Z"/><path class="cls-28" d="M1426.8,773.31a2.51,2.51,0,1,1-2.51-2.52A2.51,2.51,0,0,1,1426.8,773.31Z"/><path class="cls-28" d="M1446.46,776.8a2.51,2.51,0,1,1-2.5-2.51A2.5,2.5,0,0,1,1446.46,776.8Z"/><path class="cls-28" d="M1464.33,779a2.52,2.52,0,1,1-2.51-2.52A2.52,2.52,0,0,1,1464.33,779Z"/><path class="cls-28" d="M1481.7,781.94a2.52,2.52,0,1,1-2.52-2.52A2.51,2.51,0,0,1,1481.7,781.94Z"/><path class="cls-28" d="M1499.61,784.45a2.51,2.51,0,1,1-2.51-2.51A2.51,2.51,0,0,1,1499.61,784.45Z"/><path class="cls-28" d="M1522.23,787a2.52,2.52,0,1,1-2.51-2.51A2.52,2.52,0,0,1,1522.23,787Z"/><path class="cls-28" d="M1526.16,772.38a2.52,2.52,0,1,1-2.51-2.52A2.51,2.51,0,0,1,1526.16,772.38Z"/><path class="cls-28" d="M1528.67,758a2.51,2.51,0,1,1-2.51-2.51A2.51,2.51,0,0,1,1528.67,758Z"/><path class="cls-28" d="M1532.33,740.86a2.51,2.51,0,1,1-2.51-2.51A2.51,2.51,0,0,1,1532.33,740.86Z"/><path class="cls-28" d="M1536.87,722.23a2.52,2.52,0,1,1-2.52-2.51A2.52,2.52,0,0,1,1536.87,722.23Z"/><rect class="cls-26" x="1047" y="1263.43" width="19.15" height="81.64" transform="translate(288.73 -188.34) rotate(11.79)"/><path class="cls-28" d="M432.69,724.69A34.68,34.68,0,1,1,398,690,34.68,34.68,0,0,1,432.69,724.69Z"/><path class="cls-13" d="M384.34,724.69a13.46,13.46,0,1,1-13.46-13.46A13.46,13.46,0,0,1,384.34,724.69Z"/><polygon class="cls-30" points="403.22 292.73 422.2 263.89 439.65 263.89 456.97 290.11 403.22 292.73"/><g class="cls-36"><g class="cls-37"><path class="cls-38" d="M278.05,1125.35l72.73,23.44s11.11-88.51,8.74-92l-2.36-3.53-89.84-10.61Z"/></g></g><path class="cls-26" d="M345.62,1051.15c-.17,3.57-14.56,5.8-32.15,5s-31.71-4.36-31.54-7.92,14.55-5.8,32.14-5S345.78,1047.59,345.62,1051.15Z"/><path class="cls-26" d="M1325,1240.39a72.77,72.77,0,0,1-42.22-13.81c-17.54-12.41-27.71-29.89-31.1-41.09l10-3c2.91,9.6,11.75,24.68,27.12,35.56,11.62,8.22,30.73,16.43,55.77,8.86A66.5,66.5,0,0,0,1389,1144l10-3a77,77,0,0,1-51.43,96A78,78,0,0,1,1325,1240.39Z"/><path class="cls-5" d="M1221.51,1106.09l-28.19,131.83a30.26,30.26,0,0,0,24.47,36.14l33.07,5.66,34.2-162.16"/><path class="cls-26" d="M1253,1165.18H1230l-11.54,20,11.54,20H1253l11.53-20Zm-11.84,29a9,9,0,1,1,9-9A9,9,0,0,1,1241.19,1194.19Z"/><g class="cls-25"><rect class="cls-39" x="-28.17" y="564.74" width="1534.43" height="60.57" transform="translate(-198.32 448.1) rotate(-29.93)"/></g><g class="cls-25"><rect class="cls-40" x="-60.55" y="749.57" width="1534.43" height="60.57" transform="translate(-294.86 456.6) rotate(-29.93)"/></g><path class="cls-28" d="M1253.72,1140.43a6.23,6.23,0,1,1-6.22-6.23A6.22,6.22,0,0,1,1253.72,1140.43Z"/><path class="cls-28" d="M1239.27,1229.33a6.23,6.23,0,1,1-6.22-6.23A6.22,6.22,0,0,1,1239.27,1229.33Z"/><rect class="cls-26" x="1387.87" y="1134.52" width="10.49" height="9.38" transform="translate(-257 421.1) rotate(-15.76)"/><path class="cls-41" d="M234.66,944.28S280.78,936,330,897.41c0,0-23.92,37.69-85.21,50.14"/><path class="cls-23" d="M1374.57,917.46c-.34,1.08-.66,2.14-1,3.18,0,.1-.34.18-.5.15q-1.58-.19-3.15-.45a.73.73,0,0,0-.85.33,19.88,19.88,0,0,1-1.2,1.69.82.82,0,0,0-.1,1.06c.56,1,1.07,2.1,1.62,3.19l-2.87,2.11c-.89-.86-1.77-1.69-2.62-2.55a.74.74,0,0,0-.89-.2c-.73.27-1.47.48-2.19.76a.64.64,0,0,0-.37.43c-.23,1.24-.43,2.48-.65,3.8-1.11,0-2.22,0-3.32,0-.1,0-.26-.19-.28-.31-.22-1.12-.42-2.25-.6-3.38a.56.56,0,0,0-.44-.52c-.77-.22-1.54-.48-2.31-.73a.53.53,0,0,0-.66.15c-.85.91-1.73,1.8-2.62,2.72l-3-2.12c.53-1.08,1-2.14,1.57-3.18a.85.85,0,0,0-.11-1.11c-.46-.56-.88-1.16-1.3-1.75a.49.49,0,0,0-.57-.24c-1.09.19-2.2.34-3.29.52-.35.06-.55,0-.66-.39-.24-.84-.53-1.66-.82-2.49-.12-.32-.08-.49.26-.66,1-.49,1.93-1,2.9-1.52a.6.6,0,0,0,.39-.67c0-.73,0-1.48,0-2.22a.69.69,0,0,0-.46-.77c-1.09-.52-2.15-1.1-3.27-1.67.34-1.08.66-2.14,1-3.18,0-.1.34-.18.5-.16q1.59.19,3.15.45a.71.71,0,0,0,.85-.33,17.44,17.44,0,0,1,1.24-1.72.79.79,0,0,0,0-1c-.55-1-1.06-2.09-1.61-3.18l2.87-2.12c.89.86,1.77,1.69,2.62,2.55a.72.72,0,0,0,.89.2c.73-.27,1.47-.48,2.2-.75a.7.7,0,0,0,.36-.43c.23-1.24.43-2.49.65-3.81,1.11,0,2.22,0,3.33,0,.09,0,.25.18.28.31.21,1.12.41,2.24.59,3.37a.56.56,0,0,0,.45.53c.77.22,1.54.47,2.3.73a.54.54,0,0,0,.66-.16c.85-.9,1.73-1.79,2.63-2.71l3,2.11c-.53,1.09-1,2.15-1.56,3.19a.82.82,0,0,0,.07,1.07c.49.58.9,1.22,1.37,1.81a.57.57,0,0,0,.48.2c1.12-.15,2.23-.32,3.35-.51.34,0,.54,0,.65.4.25.85.54,1.7.83,2.53.12.31.06.45-.22.59-1,.5-2,1-3,1.55a.62.62,0,0,0-.38.66c0,.74,0,1.49,0,2.22a.71.71,0,0,0,.46.78C1372.39,916.31,1373.46,916.89,1374.57,917.46Zm-11-3.42a5.65,5.65,0,1,0-5.64,5.62A5.67,5.67,0,0,0,1363.54,914Z"/></g></g></g></svg>