<svg width="600" height="300" viewBox="0 0 600 300" fill="none" xmlns="http://www.w3.org/2000/svg">
<path fill-rule="evenodd" clip-rule="evenodd" d="M166.826 119.806C268.602 113.009 284.07 50.815 375.639 64.6139C457.727 76.9832 462.354 143.46 513.595 117.836C623.488 62.8788 608.45 200.832 573.212 232.162C534.909 266.219 386.039 295.239 310.157 299.183C234.276 303.124 30.2397 285.384 3.25903 208.509C-12.1273 164.665 60.6441 126.896 166.826 119.806Z" fill="#1C272B"/>
<mask id="mask0" mask-type="alpha" maskUnits="userSpaceOnUse" x="1" y="9" width="599" height="291">
<path fill-rule="evenodd" clip-rule="evenodd" d="M166.826 9L373.467 9C373.467 9 462.354 143.46 513.595 117.835C623.488 62.8785 608.45 200.832 573.212 232.162C534.909 266.219 386.039 295.239 310.157 299.183C234.276 303.124 30.2397 285.384 3.25903 208.509C-12.1273 164.664 60.6441 126.896 166.826 119.806V9Z" fill="white"/>
</mask>
<g mask="url(#mask0)">
<path fill-rule="evenodd" clip-rule="evenodd" d="M305.256 221.843L291.279 184.591L291.401 184.547C288.655 185.536 223.474 208.038 163.138 144.854C155.551 136.909 142.958 136.622 135.016 144.207C127.074 151.797 126.784 164.389 134.371 172.334C175.373 215.271 219.205 226.613 248.756 228.567C280.643 230.674 302.831 222.752 305.256 221.843Z" fill="#EDE7E1"/>
<mask id="mask1" mask-type="alpha" maskUnits="userSpaceOnUse" x="128" y="138" width="178" height="91">
<path fill-rule="evenodd" clip-rule="evenodd" d="M305.256 221.843L291.279 184.591L291.401 184.547C288.655 185.536 223.474 208.038 163.138 144.854C155.551 136.909 142.958 136.622 135.016 144.207C127.074 151.797 126.784 164.389 134.371 172.334C175.373 215.271 219.205 226.613 248.756 228.567C280.643 230.674 302.831 222.752 305.256 221.843Z" fill="white"/>
</mask>
<g mask="url(#mask1)">
<path opacity="0.3" fill-rule="evenodd" clip-rule="evenodd" d="M168.507 141.155C172.07 147.328 165.237 157.946 153.242 164.871C141.249 171.797 128.638 172.408 125.074 166.235C121.512 160.063 128.346 149.445 140.339 142.518C152.334 135.593 164.944 134.981 168.507 141.155Z" fill="#1C272B"/>
</g>
<path fill-rule="evenodd" clip-rule="evenodd" d="M279.768 223.376L291.054 185.224L290.93 185.188C293.739 185.979 360.357 203.778 416.037 136.454C423.039 127.987 435.581 126.804 444.042 133.804C452.505 140.807 453.692 153.347 446.69 161.813C408.851 207.563 365.94 222 336.604 226.056C304.947 230.432 282.251 224.11 279.768 223.376Z" fill="#EDE7E1"/>
<mask id="mask2" mask-type="alpha" maskUnits="userSpaceOnUse" x="279" y="129" width="173" height="99">
<path fill-rule="evenodd" clip-rule="evenodd" d="M279.768 223.376L291.054 185.224L290.93 185.188C293.739 185.979 360.357 203.778 416.037 136.454C423.039 127.987 435.581 126.804 444.042 133.804C452.505 140.807 453.692 153.347 446.69 161.813C408.851 207.563 365.94 222 336.604 226.056C304.947 230.432 282.251 224.11 279.768 223.376Z" fill="white"/>
</mask>
<g mask="url(#mask2)">
<g style="mix-blend-mode:multiply" opacity="0.3">
<path fill-rule="evenodd" clip-rule="evenodd" d="M420.356 127.873C416.853 133.94 422.374 143.684 432.688 149.639C442.998 155.595 454.198 155.504 457.7 149.439C461.201 143.373 455.681 133.627 445.367 127.672C435.056 121.718 423.857 121.806 420.356 127.873Z" fill="#1C272B"/>
</g>
</g>
<path fill-rule="evenodd" clip-rule="evenodd" d="M302.276 158.354C329.454 158.354 352.603 178.105 356.884 204.95L370.03 283.976C374.884 314.401 351.383 341.954 320.579 341.954H262.365C231.562 341.954 208.061 314.401 212.914 283.976L226.06 204.95C230.341 178.105 253.491 158.354 280.668 158.354H302.276Z" fill="#EDE7E1"/>
<path fill-rule="evenodd" clip-rule="evenodd" d="M327.27 222.502H315.589C312.957 222.502 310.822 220.367 310.822 217.734V206.051C310.822 203.416 312.957 201.283 315.589 201.283H327.27C329.903 201.283 332.038 203.416 332.038 206.051V217.734C332.038 220.367 329.903 222.502 327.27 222.502Z" fill="#F06B38"/>
<mask id="mask3" mask-type="alpha" maskUnits="userSpaceOnUse" x="212" y="158" width="159" height="189">
<path fill-rule="evenodd" clip-rule="evenodd" d="M280.669 158.354C253.491 158.354 230.341 178.106 226.06 204.95L212.914 288.807C208.063 319.232 231.563 346.784 262.367 346.784H320.579C351.382 346.784 374.884 319.232 370.03 288.807L356.885 204.95C352.605 178.106 329.453 158.354 302.276 158.354" fill="white"/>
</mask>
<g mask="url(#mask3)">
<path fill-rule="evenodd" clip-rule="evenodd" d="M359.532 121.974C358.312 161.873 327.022 193.162 289.642 191.861C252.262 190.562 222.946 157.163 224.165 117.265C225.383 77.3667 256.673 46.0775 294.054 47.378C331.434 48.6772 360.75 82.0758 359.532 121.974Z" fill="#CCC8C3"/>
</g>
<path fill-rule="evenodd" clip-rule="evenodd" d="M297.105 56.715L290.479 56.4989L291.385 28.6631L298.012 28.878L297.105 56.715Z" fill="#726B65"/>
<path fill-rule="evenodd" clip-rule="evenodd" d="M224.762 139.282L215.166 137.038C211.855 136.263 209.381 133.499 208.976 130.121L207.961 121.62C207.557 118.243 209.308 114.973 212.345 113.439L221.141 108.995L224.762 139.282Z" fill="#726B65"/>
<path fill-rule="evenodd" clip-rule="evenodd" d="M357.292 143.602L367.015 141.987C370.37 141.43 373.017 138.833 373.64 135.488L375.208 127.072C375.83 123.727 374.296 120.351 371.366 118.623L362.877 113.615L357.292 143.602Z" fill="#726B65"/>
<path fill-rule="evenodd" clip-rule="evenodd" d="M364.076 118.611C362.776 158.509 329.385 189.8 289.494 188.499C249.603 187.199 218.318 153.801 219.619 113.903C220.919 74.0045 254.311 42.7154 294.201 44.0146C334.092 45.3151 365.376 78.7125 364.076 118.611Z" fill="#EDE7E1"/>
<path fill-rule="evenodd" clip-rule="evenodd" d="M305.559 21.1631C305.37 27.0206 300.467 31.6126 294.612 31.4218C288.757 31.231 284.164 26.3287 284.355 20.4725C284.546 14.615 289.447 10.0218 295.302 10.2138C301.158 10.4046 305.75 15.3057 305.559 21.1631Z" fill="#F06B38"/>
<path fill-rule="evenodd" clip-rule="evenodd" d="M298.247 13.8026C298.247 14.7915 296.927 15.5945 295.297 15.5945C293.667 15.5945 292.345 14.7915 292.345 13.8026C292.345 12.8137 293.667 12.0107 295.297 12.0107C296.927 12.0107 298.247 12.8137 298.247 13.8026Z" fill="white" style="mix-blend-mode:soft-light"/>
<path fill-rule="evenodd" clip-rule="evenodd" d="M295.149 27.1617C290.492 27.0096 286.503 24.3978 284.358 20.6221C284.25 26.4119 288.807 31.2333 294.612 31.4217C299.977 31.5968 304.529 27.751 305.403 22.6035C302.944 25.5002 299.243 27.2945 295.149 27.1617Z" fill="#DF5B35"/>
<path fill-rule="evenodd" clip-rule="evenodd" d="M350.564 126.133C349.788 149.925 322.541 174.98 289.969 173.918C257.398 172.856 231.838 146.081 232.613 122.287C233.388 98.4951 235.341 79.2505 292.993 81.1293C347.992 82.9224 351.339 102.34 350.564 126.133Z" fill="#B2CAD4"/>
<path fill-rule="evenodd" clip-rule="evenodd" d="M261.613 97.3775C265.201 93.8843 260.298 87.7866 255.683 89.7318C241.942 95.524 238.766 108.472 238.298 122.794C238.018 131.431 241.577 140.502 247.846 148.327C248.765 149.475 250.6 148.562 250.245 147.135C245.863 129.519 245.676 112.896 261.613 97.3775Z" fill="#F0F4F8" fill-opacity="0.5"/>
<mask id="mask4" mask-type="alpha" maskUnits="userSpaceOnUse" x="232" y="81" width="119" height="93">
<path fill-rule="evenodd" clip-rule="evenodd" d="M232.613 122.288C231.838 146.08 257.396 172.857 289.968 173.918C322.54 174.98 349.789 149.925 350.564 126.133C351.338 102.34 347.992 82.9223 292.992 81.1292C290.382 81.0447 287.887 81.0024 285.499 81.0024C235.169 81.0024 233.353 99.5733 232.613 122.288Z" fill="white"/>
</mask>
<g mask="url(#mask4)">
<path fill-rule="evenodd" clip-rule="evenodd" d="M346.642 94.8579C346.642 94.8579 346.95 183.588 244.961 160.527L212.044 205.355L403.846 174.408L346.642 94.8579Z" fill="#A2BAC8"/>
</g>
<path fill-rule="evenodd" clip-rule="evenodd" d="M435.796 135.856C435.606 137.302 433.442 138.211 430.962 137.885C428.484 137.559 426.628 136.122 426.818 134.675C427.009 133.229 429.173 132.321 431.651 132.647C434.13 132.973 435.986 134.41 435.796 135.856Z" fill="white"/>
<path fill-rule="evenodd" clip-rule="evenodd" d="M154.931 130.701C156.224 132.588 154.649 135.915 151.414 138.132C148.179 140.348 144.509 140.617 143.216 138.728C141.923 136.841 143.497 133.513 146.732 131.296C149.968 129.08 153.638 128.814 154.931 130.701Z" fill="white"/>
</g>
<path fill-rule="evenodd" clip-rule="evenodd" d="M541.449 35.5645L539.023 42.1942L532.394 44.6187L539.023 47.045L541.449 53.6766L543.873 47.045L550.503 44.6205V44.6187L543.873 42.1942L541.45 35.5645H541.449Z" fill="#F99D78"/>
<path fill-rule="evenodd" clip-rule="evenodd" d="M39.839 178.046L38.2217 182.466L33.8027 184.082L38.2217 185.7L39.839 190.121L41.455 185.7L45.8752 184.083V184.082L41.455 182.466L39.8402 178.046H39.839Z" fill="#7D728E"/>
<path fill-rule="evenodd" clip-rule="evenodd" d="M31.9921 80.2407L29.5662 86.8705L22.9377 89.2949L29.5662 91.7213L31.9921 98.3528L34.4161 91.7213L41.0465 89.2968V89.2949L34.4161 86.8705L31.9939 80.2407H31.9921Z" fill="#CDDCE6"/>
<path fill-rule="evenodd" clip-rule="evenodd" d="M106.237 205.817L104.944 209.353L101.408 210.646L104.944 211.94L106.237 215.477L107.53 211.94L111.066 210.647V210.646L107.53 209.353L106.238 205.817H106.237Z" fill="#F99D78"/>
<path fill-rule="evenodd" clip-rule="evenodd" d="M498.592 190.121L496.974 194.54L492.555 196.157L496.974 197.774L498.592 202.195L500.208 197.774L504.628 196.158V196.157L500.208 194.54L498.593 190.121H498.592Z" fill="#7D728E"/>
<path fill-rule="evenodd" clip-rule="evenodd" d="M568.612 135.784L567.318 139.32L563.783 140.613L567.318 141.907L568.612 145.444L569.905 141.907L573.441 140.614V140.613L569.905 139.32L568.613 135.784H568.612Z" fill="#CDDCE6"/>
<path fill-rule="evenodd" clip-rule="evenodd" d="M180.851 109.677C180.851 142.88 153.939 169.797 120.742 169.797C87.544 169.797 60.6321 142.88 60.6321 109.677C60.6321 76.474 87.544 49.5571 120.742 49.5571C153.939 49.5571 180.851 76.474 180.851 109.677Z" fill="#766991"/>
<path fill-rule="evenodd" clip-rule="evenodd" d="M138.496 167.116C106.779 176.923 73.1199 159.156 63.3147 127.434C63.6056 128.376 93.4777 143.897 125.193 134.09C156.91 124.283 178.46 92.861 178.169 91.9204C187.975 123.642 170.211 157.308 138.496 167.116Z" fill="#645B7F"/>
<path fill-rule="evenodd" clip-rule="evenodd" d="M204.595 83.9828C206.348 89.7074 170.227 105.851 123.916 120.043C77.6066 134.233 38.6416 141.096 36.8887 135.371C35.1345 129.646 71.2553 113.502 117.566 99.3104C163.877 85.1203 202.841 78.2582 204.595 83.9828Z" stroke="#473F54" stroke-width="4.897"/>
<path fill-rule="evenodd" clip-rule="evenodd" d="M111.448 109.677C88.3622 109.677 69.9289 126.325 62.5969 124.94C61.9252 122.141 60.862 119.609 60.6323 109.677C59.8644 76.4777 87.5442 49.5571 120.742 49.5571C147.316 49.5571 169.863 66.8052 177.801 90.7189C179.78 96.6788 158.451 91.8444 158.451 98.4686C158.451 98.4686 144.645 109.677 111.448 109.677Z" fill="#766991"/>
<path d="M71.6186 120.285C65.7598 93.1492 83.0053 66.4038 110.136 60.5439" stroke="#C6BAE5" stroke-width="3.265" stroke-linecap="round" stroke-dasharray="80 20 90 0"/>
<path fill-rule="evenodd" clip-rule="evenodd" d="M467.281 154.792C434.084 154.792 407.173 127.875 407.173 94.6707C407.173 61.4677 434.084 34.5508 467.281 34.5508C500.479 34.5508 527.391 61.4677 527.391 94.6707C527.391 127.875 500.479 154.792 467.281 154.792Z" fill="#475F89"/>
<path fill-rule="evenodd" clip-rule="evenodd" d="M407.358 89.9321C407.282 90.9162 429.299 116.384 462.393 119.001C495.487 121.619 527.125 100.392 527.204 99.4083C524.588 132.509 495.638 157.221 462.544 154.604C429.45 151.988 404.742 123.034 407.358 89.9321Z" fill="#425B7A"/>
<mask id="mask5" mask-type="alpha" maskUnits="userSpaceOnUse" x="373" y="0" width="189" height="189">
<path fill-rule="evenodd" clip-rule="evenodd" d="M527.391 94.6707C527.391 127.875 500.479 154.792 467.281 154.792C434.084 154.792 407.173 127.875 407.173 94.6707C407.173 61.4677 434.084 34.5508 467.281 34.5508C500.479 34.5508 527.391 61.4677 527.391 94.6707ZM561.291 94.6701C561.291 146.6 519.202 188.698 467.281 188.698C415.362 188.698 373.273 146.6 373.273 94.6701C373.273 42.7417 415.362 0.644531 467.281 0.644531C519.202 0.644531 561.291 42.7417 561.291 94.6701Z" fill="white"/>
</mask>
<g mask="url(#mask5)">
<path fill-rule="evenodd" clip-rule="evenodd" d="M551.584 118.849C549.934 124.605 510.853 118.446 464.293 105.092C417.735 91.7393 381.329 76.2487 382.978 70.4927C384.629 64.7379 423.709 70.896 470.27 84.2494C516.829 97.6028 553.235 113.093 551.584 118.849Z" stroke="#394E6B" stroke-width="4.897"/>
</g>
<mask id="mask6" mask-type="alpha" maskUnits="userSpaceOnUse" x="407" y="77" width="118" height="78">
<path fill-rule="evenodd" clip-rule="evenodd" d="M524.996 111.53C517.709 136.528 494.628 154.792 467.281 154.792C434.084 154.792 407.173 127.875 407.173 94.6707C407.173 88.7786 408.02 83.0845 409.6 77.7036C481.558 99.834 508.867 107.778 524.996 111.53Z" fill="white"/>
</mask>
<g mask="url(#mask6)">
<path fill-rule="evenodd" clip-rule="evenodd" d="M551.584 118.85C549.934 124.606 510.853 118.447 464.293 105.092C417.735 91.7398 381.329 76.2492 382.978 70.4932C384.629 64.7384 423.709 70.8965 470.27 84.2499C516.829 97.6033 553.235 113.094 551.584 118.85Z" stroke="#394E6B" stroke-width="4.897"/>
</g>
<mask id="mask7" mask-type="alpha" maskUnits="userSpaceOnUse" x="373" y="0" width="189" height="189">
<path fill-rule="evenodd" clip-rule="evenodd" d="M407.043 94.6707C407.043 127.875 433.955 154.792 467.153 154.792C500.349 154.792 527.261 127.875 527.261 94.6707C527.261 61.4677 500.349 34.5508 467.153 34.5508C433.955 34.5508 407.043 61.4677 407.043 94.6707ZM373.143 94.6701C373.143 146.6 415.232 188.698 467.153 188.698C519.072 188.698 561.161 146.6 561.161 94.6701C561.161 42.7417 519.072 0.644531 467.153 0.644531C415.232 0.644531 373.143 42.7417 373.143 94.6701Z" fill="white"/>
</mask>
<g mask="url(#mask7)">
<path fill-rule="evenodd" clip-rule="evenodd" d="M382.849 118.849C384.5 124.605 423.581 118.446 470.14 105.092C516.699 91.7393 553.104 76.2487 551.455 70.4927C549.805 64.7379 510.724 70.896 464.163 84.2494C417.605 97.6028 381.199 113.093 382.849 118.849Z" stroke="#394E6B" stroke-width="4.897"/>
</g>
<mask id="mask8" mask-type="alpha" maskUnits="userSpaceOnUse" x="409" y="77" width="118" height="78">
<path fill-rule="evenodd" clip-rule="evenodd" d="M409.027 111.53C416.314 136.528 439.395 154.792 466.741 154.792C499.938 154.792 526.85 127.875 526.85 94.6707C526.85 88.7786 526.002 83.0845 524.423 77.7036C452.464 99.834 425.155 107.778 409.027 111.53Z" fill="white"/>
</mask>
<g mask="url(#mask8)">
<path fill-rule="evenodd" clip-rule="evenodd" d="M382.849 118.85C384.5 124.606 423.581 118.447 470.14 105.092C516.699 91.7398 553.104 76.2492 551.455 70.4932C549.805 64.7384 510.724 70.8965 464.163 84.2499C417.605 97.6033 381.199 113.094 382.849 118.85Z" stroke="#394E6B" stroke-width="4.897"/>
</g>
<path d="M421.607 73.7037C433.185 48.4737 463.021 37.4084 488.245 48.9881" stroke="#ABD9FF" stroke-width="3.265" stroke-linecap="round" stroke-dasharray="100 20 190 20"/>
</svg>
